<svg xmlns="http://www.w3.org/2000/svg" width="23" height="22" viewBox="0 0 23 22" fill="none">
  <path d="M13.375 16.1015C13.0226 15.3753 12.5672 14.8468 11.7808 15.169L10.2297 15.7448C8.98787 16.3206 8.36911 15.7448 7.75037 14.8812L4.96169 8.53038C4.61365 7.8042 4.79412 7.121 5.58044 6.79874L7.75037 5.93506C8.53669 5.6128 8.41208 4.9296 8.05974 4.20342L6.19919 0.740143C5.84685 0.0139707 5.12497 -0.162201 4.33865 0.160064C2.76599 0.813189 1.46404 1.82725 0.62185 3.33545C-0.4094 5.17881 0.106225 7.73975 0.312475 8.81827C0.518725 9.89678 1.2406 11.7831 2.17302 13.7253C3.10544 15.6675 3.92185 17.1929 4.65232 18.0565C5.38279 18.9202 7.13162 21.2835 9.30154 21.8077C11.0804 22.2374 12.9969 21.8765 14.5695 21.2276C15.3558 20.9054 15.3601 20.2222 15.0078 19.4917L13.375 16.1015ZM17.7664 5.07569H15.2269L18.6129 8.46163H10.9988V10.1546H18.6129L15.2312 13.5362H17.7707L22.0031 9.30381L17.7664 5.07569Z" fill="white"/>
</svg>