<svg xmlns="http://www.w3.org/2000/svg" width="23" height="22" viewBox="0 0 23 22" fill="none">
  <path d="M13.375 16.1013C13.0226 15.3752 12.5672 14.8467 11.7808 15.1689L10.2297 15.7447C8.98787 16.3205 8.36911 15.7447 7.75037 14.881L4.96169 8.53025C4.61365 7.80408 4.79412 7.12088 5.58044 6.79861L7.75037 5.93494C8.53669 5.61268 8.41208 4.92947 8.05974 4.2033L6.19919 0.740021C5.84685 0.0138487 5.12497 -0.162323 4.33865 0.159942C2.76599 0.813067 1.46404 1.82713 0.62185 3.33533C-0.4094 5.17869 0.106225 7.73963 0.312475 8.81815C0.518725 9.89666 1.2406 11.783 2.17302 13.7252C3.10544 15.6674 3.92185 17.1928 4.65232 18.0564C5.38279 18.9201 7.13162 21.2834 9.30154 21.8076C11.0804 22.2373 12.9969 21.8763 14.5695 21.2275C15.3558 20.9053 15.3601 20.2221 15.0078 19.4916L13.375 16.1013ZM17.7664 5.07557H15.2269L18.6129 8.4615H10.9988V10.1545H18.6129L15.2312 13.5361H17.7707L22.0031 9.30369L17.7664 5.07557Z" fill="#095090"/>
</svg>