<svg xmlns="http://www.w3.org/2000/svg" width="18" height="17" viewBox="0 0 18 17" fill="none">
  <path d="M9.03141 0.333294C7.89619 0.333294 6.84205 0.553389 5.869 0.993578C4.87278 1.4106 4.00399 1.9898 3.26262 2.73117C2.52125 3.47254 1.94205 4.34133 1.52503 5.33755C1.08484 6.3106 0.864746 7.36474 0.864746 8.49996C0.864746 9.63518 1.08484 10.6893 1.52503 11.6624C1.94205 12.6586 2.52125 13.5274 3.26262 14.2688C4.00399 15.0101 4.87278 15.5893 5.869 16.0063C6.84205 16.4465 7.89619 16.6666 9.03141 16.6666C10.1666 16.6666 11.2208 16.4465 12.1938 16.0063C13.19 15.5893 14.0588 15.0101 14.8002 14.2688C15.5416 13.5274 16.1208 12.6586 16.5378 11.6624C16.978 10.6893 17.1981 9.63518 17.1981 8.49996C17.1981 7.36474 16.978 6.3106 16.5378 5.33755C16.1208 4.34133 15.5416 3.47254 14.8002 2.73117C14.0588 1.9898 13.19 1.4106 12.1938 0.993578C11.2208 0.553389 10.1666 0.333294 9.03141 0.333294ZM9.03141 1.82762C10.8848 1.82762 12.4603 2.47632 13.7577 3.77372C15.0551 5.07112 15.7038 6.64653 15.7038 8.49996C15.7038 10.3534 15.0551 11.9288 13.7577 13.2262C12.4603 14.5236 10.8848 15.1723 9.03141 15.1723C7.17798 15.1723 5.60257 14.5236 4.30517 13.2262C3.00777 11.9288 2.35907 10.3534 2.35907 8.49996C2.35907 6.64653 3.00777 5.07112 4.30517 3.77372C5.60257 2.47632 7.17798 1.82762 9.03141 1.82762ZM9.03141 3.2872C8.8229 3.31036 8.64914 3.39145 8.51014 3.53046C8.37113 3.66946 8.30162 3.84322 8.30162 4.05173V8.49996C8.30162 8.63897 8.33638 8.76639 8.40588 8.88223C8.47538 8.99807 8.56806 9.09074 8.68389 9.16024L11.6725 10.6546C11.7189 10.6777 11.771 10.6951 11.8289 10.7067C11.8868 10.7183 11.939 10.7241 11.9853 10.7241C12.1938 10.7241 12.3734 10.6546 12.524 10.5156C12.6746 10.3766 12.7499 10.2028 12.7499 9.99429C12.7499 9.83211 12.7093 9.6931 12.6282 9.57727C12.5471 9.46143 12.4487 9.38034 12.3328 9.334L9.7612 8.04819V4.05173C9.7612 3.84322 9.6917 3.66367 9.55269 3.51308C9.41368 3.36249 9.23992 3.2872 9.03141 3.2872Z" fill="#2F2F2F"/>
</svg>