<svg xmlns="http://www.w3.org/2000/svg" width="10" height="6" viewBox="0 0 10 6" fill="none">
  <path d="M4.58896 5.63179L0.496777 1.5396C0.39834 1.44116 0.349121 1.32163 0.349121 1.18101C0.349121 1.04038 0.39834 0.92085 0.496777 0.822412L0.96084 0.35835C1.05928 0.259912 1.17881 0.207178 1.31943 0.200147C1.46006 0.193116 1.57959 0.238819 1.67803 0.337256L4.94756 3.60679L8.21709 0.337256C8.31553 0.238819 8.43506 0.193116 8.57568 0.200147C8.71631 0.207178 8.83584 0.259912 8.93428 0.35835L9.39834 0.822412C9.49678 0.92085 9.546 1.04038 9.546 1.18101C9.546 1.32163 9.49678 1.44116 9.39834 1.5396L5.30615 5.63179C5.20771 5.74429 5.08818 5.80054 4.94756 5.80054C4.80693 5.80054 4.6874 5.74429 4.58896 5.63179Z" fill="#095090"/>
</svg>