<svg xmlns="http://www.w3.org/2000/svg" width="18" height="15" viewBox="0 0 18 15" fill="none">
  <path d="M2.86483 0.5C2.23288 0.5 1.68601 0.730904 1.2242 1.19271C0.762397 1.65451 0.531494 2.20139 0.531494 2.83333V12.1667C0.531494 12.7986 0.762397 13.3455 1.2242 13.8073C1.68601 14.2691 2.23288 14.5 2.86483 14.5H15.3336C15.9655 14.5 16.5124 14.2691 16.9742 13.8073C17.436 13.3455 17.6669 12.7986 17.6669 12.1667V2.83333C17.6669 2.20139 17.436 1.65451 16.9742 1.19271C16.5124 0.730904 15.9655 0.5 15.3336 0.5H2.86483ZM2.86483 2.06771H15.3336C15.5523 2.06771 15.7346 2.14062 15.8805 2.28646C16.0263 2.43229 16.0992 2.61458 16.0992 2.83333V12.1667C16.0992 12.3854 16.0263 12.5677 15.8805 12.7135C15.7346 12.8594 15.5523 12.9323 15.3336 12.9323H2.86483C2.64608 12.9323 2.46379 12.8594 2.31795 12.7135C2.17212 12.5677 2.0992 12.3854 2.0992 12.1667V2.83333C2.0992 2.61458 2.17212 2.43229 2.31795 2.28646C2.46379 2.14062 2.64608 2.06771 2.86483 2.06771ZM1.33358 2.06771C1.33358 2.0434 1.33358 2.03125 1.33358 2.03125C1.33358 2.03125 1.32142 2.03125 1.29712 2.03125C1.10267 2.03125 0.926459 2.11024 0.768473 2.26823C0.610487 2.42622 0.531494 2.61458 0.531494 2.83333C0.531494 2.95486 0.561876 3.07639 0.62264 3.19792C0.683404 3.31944 0.762397 3.40451 0.859619 3.45312L8.6617 8.92188C8.71031 8.97049 8.77715 9.00694 8.86222 9.03125C8.94729 9.05556 9.02629 9.06771 9.0992 9.06771C9.17212 9.06771 9.25111 9.05556 9.33618 9.03125C9.42125 9.00694 9.48809 8.97049 9.5367 8.92188L17.3388 3.45312C17.436 3.40451 17.515 3.31944 17.5758 3.19792C17.6365 3.07639 17.6669 2.95486 17.6669 2.83333C17.6669 2.61458 17.594 2.42622 17.4482 2.26823C17.3023 2.11024 17.12 2.03125 16.9013 2.03125C16.8041 2.03125 16.719 2.04948 16.6461 2.08594C16.5732 2.1224 16.5002 2.16493 16.4273 2.21354L9.0992 7.31771L1.77108 2.21354C1.69816 2.16493 1.62524 2.12847 1.55233 2.10417C1.47941 2.07986 1.40649 2.06771 1.33358 2.06771Z" fill="#2F2F2F"/>
</svg>