<svg xmlns="http://www.w3.org/2000/svg" width="20" height="19" viewBox="0 0 20 19" fill="none">
  <path d="M10.2913 0.166626C5.14556 0.166626 0.958008 4.35418 0.958008 9.49996C0.958008 14.6457 5.14556 18.8333 10.2913 18.8333C15.4371 18.8333 19.6247 14.6457 19.6247 9.49996C19.6247 4.35418 15.4371 0.166626 10.2913 0.166626ZM10.2913 1.72218C14.5963 1.72218 18.0691 5.19496 18.0691 9.49996C18.071 11.3619 17.4033 13.1625 16.1879 14.5731C14.9725 15.9837 13.2905 16.9102 11.4487 17.1836V11.768H13.6638L14.0114 9.51785H11.4487V8.28896C11.4487 7.35563 11.7559 6.52574 12.6293 6.52574H14.0332V4.56263C13.7867 4.52918 13.2648 4.45685 12.2786 4.45685C10.219 4.45685 9.01189 5.54418 9.01189 8.02218V9.51785H6.89478V11.768H9.01189V17.1642C7.19559 16.8652 5.54474 15.9302 4.35432 14.5262C3.1639 13.1222 2.51145 11.3407 2.51356 9.49996C2.51356 5.19496 5.98634 1.72218 10.2913 1.72218Z" fill="#2F2F2F"/>
</svg>