<svg xmlns="http://www.w3.org/2000/svg" width="28" height="28" viewBox="0 0 28 28" fill="none">
  <path d="M25.371 6.27229C21.3277 -0.00256636 13.0476 -1.86178 6.64405 2.03095C0.39527 5.92369 -1.61672 14.4064 2.42661 20.6619L2.75549 21.1654L1.40127 26.2395L6.46993 24.8838L6.97293 25.2131C9.15904 26.3944 11.5386 27.0723 13.8988 27.0723C16.4332 27.0723 18.9675 26.3944 21.1536 25.0388C27.4024 20.9717 29.2596 12.6634 25.371 6.23356V6.27229ZM21.8307 19.3255C21.1536 20.3326 20.3024 21.0105 19.1223 21.1848C18.4451 21.1848 17.5939 21.514 14.2277 20.1777C11.3645 18.822 8.98492 16.6142 7.30181 14.0771C6.29582 12.8958 5.77347 11.3658 5.61871 9.83579C5.61871 8.48011 6.1217 7.29874 6.97293 6.44659C7.30181 6.11736 7.65004 5.94306 7.97893 5.94306H8.83015C9.15904 5.94306 9.50726 5.94306 9.68138 6.6209C10.0103 7.47304 10.8615 9.50656 10.8615 9.68086C11.0356 9.85516 10.9582 11.1527 10.1844 11.8887C9.75876 12.3729 9.68138 12.3922 9.85549 12.7408C10.5326 13.7479 11.3838 14.7743 12.2157 15.6265C13.2217 16.4786 14.247 17.1565 15.4272 17.66C15.756 17.8343 16.1043 17.8343 16.2784 17.4857C16.4525 17.1565 17.2844 16.3043 17.6326 15.9557C17.9615 15.6265 18.1356 15.6265 18.4838 15.7814L21.1923 17.1371C21.5212 17.3114 21.8694 17.4663 22.0435 17.6406C22.2176 18.1442 22.2176 18.822 21.8694 19.3255H21.8307Z" fill="white"/>
</svg>