<svg xmlns="http://www.w3.org/2000/svg" width="13" height="12" viewBox="0 0 13 12" fill="none">
  <path d="M11.3392 3.09549C11.3902 3.14508 11.4509 3.18443 11.5178 3.21129C11.5848 3.23815 11.6565 3.25197 11.729 3.25197C11.8015 3.25197 11.8733 3.23815 11.9402 3.21129C12.0071 3.18443 12.0678 3.14508 12.1189 3.09549H11.3392ZM11.3392 3.09549L10.9003 2.66941L11.3392 3.09549ZM9.34565 7.87616L9.80211 8.31593V7.68209V7.48107C9.80211 7.41554 9.82903 7.35057 9.88042 7.30106C9.93216 7.25122 10.0044 7.22153 10.0817 7.22153C10.1591 7.22153 10.2313 7.25122 10.283 7.30106C10.3344 7.35057 10.3613 7.41554 10.3613 7.48107V10.1262C10.3613 10.4723 10.2187 10.8064 9.96137 11.0543C9.70368 11.3026 9.35212 11.4437 8.98353 11.4437H2.39436C2.02577 11.4437 1.67421 11.3026 1.41652 11.0543C1.15918 10.8064 1.01655 10.4723 1.01655 10.1262V3.77793C1.01655 3.43179 1.15918 3.09771 1.41652 2.84977C1.67421 2.60151 2.02577 2.46035 2.39436 2.46035H6.23804C6.31537 2.46035 6.38761 2.49004 6.43934 2.53988C6.49073 2.58939 6.51766 2.65436 6.51766 2.71989C6.51766 2.78541 6.49073 2.85038 6.43934 2.89989C6.38761 2.94973 6.31537 2.97942 6.23804 2.97942H2.39436C2.18043 2.97942 1.97334 3.06121 1.81912 3.20979C1.66456 3.35869 1.57578 3.56284 1.57578 3.77793V6.74044V7.37427L2.03224 6.93451L2.8424 6.15396C3.08244 5.93492 3.40242 5.81131 3.7369 5.81131C4.07139 5.81131 4.39137 5.93492 4.63141 6.15396L5.99067 7.46353L6.17764 7.64366L6.36461 7.46353L6.74821 7.09395C6.74833 7.09384 6.74845 7.09372 6.74857 7.09361C6.98433 6.86844 7.3049 6.74045 7.64099 6.74045C7.97704 6.74045 8.29759 6.86842 8.53335 7.09355C8.53348 7.09369 8.53362 7.09382 8.53376 7.09395L9.34565 7.87616ZM1.65829 8.0435L1.57578 8.12299V8.23756V10.1262C1.57578 10.3412 1.66456 10.5454 1.81912 10.6943C1.97334 10.8429 2.18043 10.9247 2.39436 10.9247H8.13792H8.80603L8.32489 10.4611L5.96377 8.18633L4.22313 6.50934L4.22319 6.50928L4.21841 6.5049C4.08707 6.38431 3.91452 6.31855 3.7369 6.31855C3.55929 6.31855 3.38674 6.38431 3.25539 6.5049L3.25534 6.50484L3.25067 6.50934L1.65829 8.0435ZM9.8021 10.1283H9.80211V10.1262V9.17922V9.06519L9.72026 8.9858L8.13468 7.44762C8.13442 7.44737 8.13417 7.44712 8.13391 7.44687C8.06916 7.3834 7.9925 7.33347 7.90865 7.29953C7.82448 7.26545 7.73445 7.24803 7.64373 7.24803C7.55301 7.24803 7.46298 7.26545 7.37882 7.29953C7.29512 7.33341 7.21858 7.38322 7.1539 7.44653L6.77039 7.81602L6.5694 8.00966L6.76996 8.20374L9.24639 10.6002L9.46124 10.8081L9.6458 10.5729C9.74542 10.4459 9.80084 10.29 9.8021 10.1283ZM11.9319 2.53835L11.9327 2.53911C11.9585 2.56374 11.9783 2.59248 11.9917 2.6234C12.0051 2.65429 12.0118 2.68705 12.0118 2.71989C12.0118 2.75272 12.0051 2.78548 11.9917 2.81638C11.9783 2.8473 11.9585 2.87604 11.9327 2.90066L11.9327 2.90065L11.9311 2.90219C11.9056 2.92701 11.8746 2.94723 11.8398 2.9612C11.805 2.97518 11.7673 2.98249 11.729 2.98249C11.6907 2.98249 11.653 2.97518 11.6182 2.9612C11.5834 2.94723 11.5525 2.92701 11.5269 2.90219L11.5269 2.90215L10.8185 2.21442L10.3613 1.77052V2.40777V5.36499C10.3613 5.43051 10.3344 5.49548 10.283 5.54499C10.2313 5.59483 10.1591 5.62452 10.0817 5.62452C10.0044 5.62452 9.93216 5.59483 9.88042 5.54499C9.82903 5.49548 9.80211 5.43051 9.80211 5.36499V2.40777V1.77052L9.34491 2.21442L8.63732 2.90142C8.63722 2.90152 8.63712 2.90161 8.63703 2.9017C8.58489 2.95178 8.51221 2.98159 8.43443 2.98159C8.3565 2.98159 8.2837 2.95167 8.23154 2.90142C8.17973 2.8515 8.15257 2.78599 8.15257 2.71989C8.15257 2.65379 8.17973 2.58827 8.23154 2.53835L9.87636 0.953674C9.90222 0.930255 9.93304 0.911395 9.96737 0.898573L9.96738 0.898621L9.97224 0.896699C10.0422 0.869004 10.1212 0.869004 10.1912 0.896699L10.1912 0.896746L10.1961 0.898573C10.2304 0.911396 10.2612 0.930256 10.2871 0.953674L11.9319 2.53835Z" stroke="black" stroke-width="0.538965"/>
</svg>