<svg xmlns="http://www.w3.org/2000/svg" width="28" height="28" viewBox="0 0 28 28" fill="none">
  <path d="M17.8053 13.5361C17.8053 14.658 17.3596 15.734 16.5663 16.5272C15.773 17.3205 14.6971 17.7662 13.5752 17.7662C12.4533 17.7662 11.3774 17.3205 10.5841 16.5272C9.79083 15.734 9.34516 14.658 9.34516 13.5361C9.34516 13.295 9.37054 13.0596 9.41425 12.8311H7.93515V18.467C7.93515 18.859 8.2524 19.1762 8.64438 19.1762H18.5074C18.6953 19.1758 18.8753 19.1009 19.008 18.968C19.1407 18.835 19.2153 18.6548 19.2153 18.467V12.8311H17.7362C17.7799 13.0596 17.8053 13.295 17.8053 13.5361ZM13.5752 16.3562C13.9456 16.3561 14.3124 16.283 14.6546 16.1412C14.9968 15.9993 15.3077 15.7915 15.5696 15.5295C15.8314 15.2675 16.0391 14.9565 16.1808 14.6142C16.3225 14.272 16.3953 13.9052 16.3952 13.5347C16.3951 13.1643 16.3221 12.7975 16.1803 12.4553C16.0384 12.1131 15.8306 11.8022 15.5686 11.5404C15.3066 11.2785 14.9956 11.0708 14.6533 10.9291C14.311 10.7875 13.9442 10.7146 13.5738 10.7147C12.8257 10.7149 12.1083 11.0123 11.5794 11.5414C11.0506 12.0705 10.7536 12.788 10.7538 13.5361C10.754 14.2843 11.0513 15.0016 11.5804 15.5305C12.1096 16.0594 12.8271 16.3564 13.5752 16.3562ZM16.9592 10.5751H18.6499C18.7622 10.5751 18.8699 10.5306 18.9495 10.4513C19.029 10.372 19.0739 10.2644 19.0743 10.1521V8.4615C19.0743 8.34894 19.0296 8.24099 18.95 8.16139C18.8704 8.0818 18.7624 8.03709 18.6499 8.03709H16.9592C16.8467 8.03709 16.7387 8.0818 16.6591 8.16139C16.5795 8.24099 16.5348 8.34894 16.5348 8.4615V10.1521C16.5362 10.3848 16.7266 10.5751 16.9592 10.5751ZM13.5752 0C9.9852 0 6.54223 1.42613 4.00371 3.96464C1.46519 6.50316 0.0390625 9.94614 0.0390625 13.5361C0.0390625 17.1262 1.46519 20.5691 4.00371 23.1076C6.54223 25.6462 9.9852 27.0723 13.5752 27.0723C15.3528 27.0723 17.113 26.7222 18.7553 26.0419C20.3975 25.3617 21.8898 24.3646 23.1467 23.1076C24.4037 21.8507 25.4007 20.3585 26.081 18.7162C26.7612 17.0739 27.1114 15.3137 27.1114 13.5361C27.1114 11.7586 26.7612 9.99837 26.081 8.35609C25.4007 6.71381 24.4037 5.22159 23.1467 3.96464C21.8898 2.7077 20.3975 1.71063 18.7553 1.03038C17.113 0.350123 15.3528 0 13.5752 0ZM20.6253 19.0197C20.6253 19.8812 19.9203 20.5862 19.0588 20.5862H8.09166C7.23014 20.5862 6.52513 19.8812 6.52513 19.0197V8.0526C6.52513 7.19108 7.23014 6.48607 8.09166 6.48607H19.0588C19.9203 6.48607 20.6253 7.19108 20.6253 8.0526V19.0197Z" fill="white"/>
</svg>