<svg xmlns="http://www.w3.org/2000/svg" width="28" height="28" viewBox="0 0 28 28" fill="none">
  <path d="M13.7922 0C6.31635 0 0.256104 6.06025 0.256104 13.5361C0.256104 21.012 6.31635 27.0723 13.7922 27.0723C21.2681 27.0723 27.3284 21.012 27.3284 13.5361C27.3284 6.06025 21.2681 0 13.7922 0ZM10.4787 19.1466H7.73764V10.3255H10.4787V19.1466ZM9.09126 9.24265C8.22551 9.24265 7.66573 8.62929 7.66573 7.8707C7.66573 7.09661 8.24243 6.50158 9.12651 6.50158C10.0106 6.50158 10.552 7.09661 10.569 7.8707C10.569 8.62929 10.0106 9.24265 9.09126 9.24265ZM20.4898 19.1466H17.7487V14.2581C17.7487 13.1202 17.3511 12.3475 16.3599 12.3475C15.6027 12.3475 15.1529 12.8706 14.9541 13.374C14.8808 13.5531 14.8624 13.8069 14.8624 14.0593V19.1452H12.12V13.1385C12.12 12.0373 12.0847 11.1166 12.0481 10.3241H14.4296L14.5551 11.5494H14.6101C14.971 10.9741 15.8551 10.1253 17.3342 10.1253C19.1376 10.1253 20.4898 11.3337 20.4898 13.9309V19.1466Z" fill="white"/>
</svg>