<svg xmlns="http://www.w3.org/2000/svg" width="47" height="47" viewBox="0 0 47 47" fill="none">
  <rect x="0.450684" y="0.450684" width="45.6338" height="45.6338" rx="22.8169" fill="#D8FBFF"/>
  <path d="M18.1971 13.847C19.324 14.6683 20.2015 15.7893 20.9508 16.862L21.3866 17.4969L21.7977 18.1032C22.0033 18.4037 22.0913 18.7693 22.0447 19.1304C21.9982 19.4915 21.8204 19.8228 21.5453 20.0613L19.6218 21.4899C19.5289 21.557 19.4634 21.6555 19.4377 21.7672C19.4119 21.8789 19.4276 21.9962 19.4818 22.0972C19.9176 22.8889 20.6925 24.068 21.5798 24.9554C22.4681 25.8427 23.7025 26.6689 24.5494 27.1539C24.6556 27.2136 24.7806 27.2302 24.8987 27.2005C25.0168 27.1708 25.119 27.097 25.1843 26.9942L26.4364 25.0885C26.6666 24.7827 27.0062 24.5778 27.3841 24.5168C27.7619 24.4558 28.1487 24.5433 28.4635 24.7611L29.1171 25.2137C30.3387 26.0615 31.6509 27.0248 32.6546 28.3094C32.8138 28.5143 32.915 28.7582 32.9478 29.0155C32.9806 29.2729 32.9437 29.5343 32.8409 29.7725C32.0157 31.698 29.9276 33.3376 27.7556 33.2577L27.4598 33.241L27.2301 33.2213L26.9757 33.1917L26.6987 33.1542L26.398 33.1049C26.3453 33.0954 26.2928 33.0856 26.2402 33.0754L25.909 33.0044C25.851 32.9916 25.7932 32.9785 25.7354 32.9649L25.3746 32.8723L24.995 32.7638L24.5987 32.6356C22.7787 32.0185 20.4687 30.8058 18.0985 28.4356C15.7294 26.0665 14.5167 23.7565 13.8995 21.9365L13.7714 21.5401L13.6629 21.1606L13.5702 20.7997L13.4933 20.4586C13.4711 20.3518 13.4504 20.2446 13.4312 20.1372L13.3819 19.8365L13.3425 19.5594L13.3139 19.3051L13.2942 19.0754L13.2784 18.7796C13.1985 16.6145 14.8559 14.5115 16.7725 13.6903C17.0032 13.5907 17.2558 13.5527 17.5055 13.5802C17.7553 13.6077 17.9936 13.6997 18.1971 13.847ZM26.2176 17.3914L26.3319 17.4042C27.0496 17.5308 27.7087 17.8814 28.2149 18.4056C28.7211 18.9298 29.0483 19.6009 29.1497 20.3225C29.1858 20.5721 29.1249 20.8261 28.9795 21.0322C28.8341 21.2383 28.6152 21.3808 28.3679 21.4304C28.1207 21.4801 27.8638 21.433 27.6501 21.299C27.4364 21.165 27.2822 20.9542 27.2193 20.71L27.1966 20.5966C27.1569 20.3138 27.0362 20.0484 26.849 19.8327C26.6618 19.617 26.4161 19.4601 26.1416 19.381L25.9888 19.3465C25.7413 19.3026 25.5198 19.1658 25.3698 18.964C25.2197 18.7623 25.1524 18.5108 25.1817 18.2611C25.2109 18.0114 25.3344 17.7823 25.5269 17.6206C25.7195 17.4589 25.9666 17.377 26.2176 17.3914ZM26.2254 14.3942C27.7943 14.3942 29.299 15.0175 30.4083 16.1268C31.5177 17.2362 32.1409 18.7408 32.1409 20.3097C32.1407 20.561 32.0444 20.8027 31.8719 20.9854C31.6994 21.1682 31.4637 21.2781 31.2128 21.2928C30.9619 21.3076 30.7149 21.226 30.5222 21.0647C30.3295 20.9034 30.2057 20.6746 30.176 20.4251L30.1691 20.3097C30.1695 19.3084 29.7888 18.3446 29.1043 17.6138C28.4198 16.883 27.4829 16.44 26.4838 16.3749L26.2254 16.3661C25.964 16.3661 25.7132 16.2622 25.5283 16.0773C25.3434 15.8924 25.2395 15.6416 25.2395 15.3801C25.2395 15.1187 25.3434 14.8679 25.5283 14.683C25.7132 14.4981 25.964 14.3942 26.2254 14.3942Z" fill="#095090"/>
</svg>