<svg xmlns="http://www.w3.org/2000/svg" width="17" height="17" viewBox="0 0 17 17" fill="none">
  <path d="M9.18141 5.23343C9.83119 5.23343 10.4544 5.49155 10.9138 5.95102C11.3733 6.41048 11.6314 7.03365 11.6314 7.68343C11.6314 7.90002 11.7175 8.10775 11.8706 8.2609C12.0238 8.41406 12.2315 8.5001 12.4481 8.5001C12.6647 8.5001 12.8724 8.41406 13.0256 8.2609C13.1787 8.10775 13.2647 7.90002 13.2647 7.68343C13.2647 6.60046 12.8345 5.56185 12.0688 4.79608C11.303 4.0303 10.2644 3.6001 9.18141 3.6001C8.96482 3.6001 8.7571 3.68614 8.60394 3.83929C8.45079 3.99245 8.36475 4.20017 8.36475 4.41676C8.36475 4.63336 8.45079 4.84108 8.60394 4.99423C8.7571 5.14739 8.96482 5.23343 9.18141 5.23343Z" fill="#2F2F2F"/>
  <path d="M9.18141 1.96671C10.6976 1.96671 12.1516 2.569 13.2237 3.64108C14.2958 4.71316 14.8981 6.16722 14.8981 7.68337C14.8981 7.89997 14.9841 8.10769 15.1373 8.26084C15.2904 8.414 15.4982 8.50004 15.7147 8.50004C15.9313 8.50004 16.1391 8.414 16.2922 8.26084C16.4454 8.10769 16.5314 7.89997 16.5314 7.68337C16.5314 5.73403 15.757 3.86453 14.3786 2.48614C13.0003 1.10775 11.1308 0.333374 9.18141 0.333374C8.96482 0.333374 8.7571 0.419415 8.60394 0.57257C8.45079 0.725725 8.36475 0.933447 8.36475 1.15004C8.36475 1.36663 8.45079 1.57436 8.60394 1.72751C8.7571 1.88067 8.96482 1.96671 9.18141 1.96671Z" fill="#2F2F2F"/>
  <path d="M16.3272 11.6932C16.2822 11.5621 16.2047 11.4446 16.1018 11.3517C15.999 11.2589 15.8742 11.1937 15.7392 11.1624L10.8392 10.0435C10.7062 10.0134 10.5677 10.017 10.4365 10.0541C10.3052 10.0912 10.1854 10.1606 10.0878 10.2559C9.9735 10.362 9.96533 10.3702 9.4345 11.3829C7.67311 10.5712 6.26174 9.15407 5.45733 7.38937C6.4945 6.86671 6.50267 6.86671 6.60883 6.74421C6.70414 6.64666 6.77351 6.5268 6.8106 6.39556C6.84769 6.26432 6.85132 6.12588 6.82117 5.99287L5.70233 1.15004C5.67101 1.01504 5.60585 0.890235 5.51298 0.787368C5.42012 0.684502 5.3026 0.606959 5.1715 0.562041C4.98078 0.493922 4.78384 0.444686 4.5835 0.415041C4.37709 0.36718 4.16645 0.339825 3.95466 0.333374C2.95833 0.333374 2.00281 0.729165 1.2983 1.43368C0.593789 2.13819 0.197998 3.09371 0.197998 4.09004C0.20232 7.42425 1.52875 10.6207 3.88639 12.9783C6.24404 15.336 9.44045 16.6624 12.7747 16.6667C13.268 16.6667 13.7565 16.5695 14.2123 16.3807C14.6681 16.192 15.0822 15.9152 15.431 15.5664C15.7799 15.2176 16.0566 14.8034 16.2454 14.3477C16.4342 13.8919 16.5313 13.4034 16.5313 12.91C16.5316 12.7022 16.5152 12.4946 16.4823 12.2894C16.448 12.0865 16.3961 11.887 16.3272 11.6932ZM12.7747 15.0334C9.87298 15.0312 7.09075 13.8776 5.03895 11.8258C2.98714 9.77395 1.83349 6.99173 1.83133 4.09004C1.83348 3.52756 2.05788 2.98873 2.45562 2.59099C2.85335 2.19326 3.39218 1.96886 3.95466 1.96671H4.22416L5.098 5.75604L4.657 5.98471C3.95466 6.35221 3.39933 6.64621 3.69333 7.28321C4.17208 8.63853 4.94673 9.87019 5.961 10.8887C6.97527 11.9072 8.20368 12.687 9.557 13.1714C10.243 13.449 10.5125 12.9345 10.88 12.224L11.1168 11.7749L14.898 12.6405V12.91C14.8958 13.4725 14.6714 14.0113 14.2737 14.4091C13.876 14.8068 13.3371 15.0312 12.7747 15.0334Z" fill="#2F2F2F"/>
</svg>