<svg xmlns="http://www.w3.org/2000/svg" width="47" height="47" viewBox="0 0 47 47" fill="none">
  <rect x="0.915527" y="0.450684" width="45.6338" height="45.6338" rx="22.8169" fill="#D8FBFF"/>
  <path d="M32.8187 26.6016C33.292 25.4523 33.5489 24.2219 33.5489 22.8698C33.5489 21.8962 33.4002 20.9633 33.1433 20.0979C32.2644 20.3007 31.3449 20.4089 30.3849 20.4089C28.4189 20.411 26.4812 19.9404 24.7352 19.0368C22.9891 18.1332 21.4859 16.8231 20.3523 15.2168C19.1396 18.1511 16.8518 20.5114 13.9568 21.8151C13.9027 22.1531 13.9027 22.5182 13.9027 22.8698C13.9027 24.1606 14.1569 25.4389 14.6509 26.6315C15.1449 27.8241 15.869 28.9077 16.7818 29.8205C18.6252 31.664 21.1255 32.6996 23.7326 32.6996C25.1523 32.6996 26.5179 32.3886 27.7483 31.8343C28.519 33.3081 28.8706 34.0382 28.8435 34.0382C26.6261 34.7819 24.9089 35.1469 23.7326 35.1469C20.4604 35.1469 17.3371 33.8624 15.0385 31.5503C13.6404 30.1565 12.6011 28.4445 12.0097 26.561H10.2114V20.4089H11.6852C12.1318 18.2354 13.1583 16.2233 14.6561 14.5862C16.1538 12.949 18.0668 11.7478 20.1921 11.1101C22.3174 10.4724 24.5756 10.4219 26.7273 10.964C28.879 11.5061 30.8437 12.6206 32.4131 14.1892C34.1171 15.8864 35.2793 18.051 35.7528 20.4089H37.2537V26.561H37.1726L32.359 30.9824L25.1928 30.1712V27.9131H31.7235L32.8187 26.6016ZM20.0413 22.5588C20.4469 22.5588 20.839 22.721 21.123 23.0185C21.4083 23.3062 21.5685 23.695 21.5685 24.1002C21.5685 24.5054 21.4083 24.8942 21.123 25.1819C20.839 25.4658 20.4469 25.6281 20.0413 25.6281C19.1895 25.6281 18.4999 24.952 18.4999 24.1002C18.4999 23.2484 19.1895 22.5588 20.0413 22.5588ZM27.4103 22.5588C28.2621 22.5588 28.9382 23.2484 28.9382 24.1002C28.9382 24.952 28.2621 25.6281 27.4103 25.6281C26.5585 25.6281 25.8689 24.952 25.8689 24.1002C25.8689 23.6914 26.0313 23.2993 26.3204 23.0102C26.6094 22.7212 27.0015 22.5588 27.4103 22.5588Z" fill="#095090"/>
</svg>