<svg xmlns="http://www.w3.org/2000/svg" width="59" height="58" viewBox="0 0 59 58" fill="none">
  <path d="M19.3854 36.2024C19.3854 34.925 18.5057 33.9626 17.3399 33.9626H2.04738C0.878693 33.9626 0 34.925 0 36.2024C0 37.446 0.890292 38.3861 2.07445 38.3861H7.38624V55.5979C7.38624 56.8531 8.33936 57.7217 9.70332 57.7217C11.0721 57.7217 12.0291 56.8531 12.0291 55.5979V38.3861H17.3409C18.4864 38.3861 19.3854 37.4266 19.3854 36.2024ZM28.5793 33.5452C22.0756 33.5452 17.8687 38.3349 17.8687 45.7441C17.8687 53.189 22.0717 58 28.5793 58C35.051 58 39.2318 53.2006 39.2318 45.776C39.2318 38.3446 35.0549 33.5452 28.5793 33.5452ZM28.5793 53.6065C24.8915 53.6065 22.6014 50.6072 22.6014 45.776C22.6014 40.9254 24.8915 37.9088 28.5793 37.9088C32.2332 37.9088 34.502 40.8617 34.502 45.6059C34.5049 50.6903 32.3444 53.6065 28.5793 53.6065ZM51.1507 33.9607H44.9873C42.4556 33.9607 41.17 35.3009 41.17 37.9465V55.539C41.17 56.8453 42.0931 57.7208 43.4658 57.7208C44.8133 57.7208 45.7577 56.8357 45.7577 55.5679V48.7018H51.0434C56.0246 48.7018 59 45.8765 59 41.138C59 36.6469 56.0652 33.9607 51.1507 33.9607ZM54.3001 41.195C54.3001 43.3488 53.2165 44.3962 50.9825 44.3962H45.7568V38.2972H50.9825C53.2165 38.2982 54.3001 39.2451 54.3001 41.195ZM35.1284 27.9816V18.0234H37.9191C39.5595 18.0234 40.909 16.4533 41.0695 14.4406L28.5097 0L16.033 14.4348C16.1954 16.4475 17.5429 18.0225 19.1853 18.0225H21.976V27.9806L35.1284 27.9816Z" fill="#8DF3FF"/>
</svg>