<svg xmlns="http://www.w3.org/2000/svg" width="28" height="28" viewBox="0 0 28 28" fill="none">
  <path d="M13.6475 0C21.131 0 27.1836 6.05259 27.1836 13.5361C27.1836 21.0197 21.131 27.0723 13.6475 27.0723C6.16392 27.0723 0.111328 21.0197 0.111328 13.5361C0.111328 6.05259 6.16392 0 13.6475 0ZM11.1723 20.6716C17.1669 20.6716 20.4542 15.7019 20.4542 11.3897V10.9643C21.0924 10.5002 21.6531 9.92006 22.0786 9.26259C21.4984 9.51398 20.8603 9.68801 20.2028 9.7847C20.8796 9.37861 21.4017 8.74048 21.6338 7.98633C20.9957 8.35373 20.2995 8.62446 19.5647 8.77916C18.9652 8.14102 18.1144 7.75428 17.1862 7.75428C15.3878 7.75428 13.9182 9.22392 13.9182 11.0223C13.9182 11.2737 13.9375 11.5251 14.0149 11.7571C11.3077 11.6217 8.89048 10.3261 7.28548 8.35373C7.01476 8.83717 6.84073 9.39795 6.84073 9.99741C6.84073 11.119 7.42085 12.1245 8.29103 12.7046C7.74958 12.7046 7.24681 12.5499 6.82139 12.2986V12.3372C6.82139 13.9229 7.94296 15.2378 9.43193 15.5472C9.16121 15.6246 8.87115 15.6633 8.58109 15.6633C8.36838 15.6633 8.175 15.6439 7.96229 15.6052C8.36838 16.9008 9.58663 17.8484 10.9983 17.8677C9.87669 18.7379 8.46506 19.26 6.93741 19.26C6.66669 19.26 6.4153 19.26 6.16392 19.2213C7.59488 20.1495 9.31591 20.691 11.153 20.691" fill="white"/>
</svg>