<svg xmlns="http://www.w3.org/2000/svg" width="20" height="19" viewBox="0 0 20 19" fill="none">
  <path d="M16.8246 2.88267C15.9689 2.01834 14.9497 1.33303 13.8264 0.866727C12.7031 0.40042 11.4982 0.162445 10.282 0.166682C5.18599 0.166682 1.03267 4.32 1.03267 9.41599C1.03267 11.0493 1.46201 12.636 2.26467 14.036L0.958008 18.8333L5.85799 17.5453C7.21132 18.2826 8.73265 18.6746 10.282 18.6746C15.378 18.6746 19.5313 14.5213 19.5313 9.42532C19.5313 6.95199 18.5699 4.628 16.8246 2.88267ZM10.282 17.1066C8.90064 17.1066 7.54732 16.7333 6.36199 16.0333L6.08199 15.8653L3.17 16.6306L3.94466 13.7933L3.758 13.504C2.99056 12.2785 2.58307 10.8619 2.582 9.41599C2.582 5.17867 6.03532 1.72534 10.2726 1.72534C12.326 1.72534 14.258 2.52801 15.7046 3.984C16.4209 4.69703 16.9886 5.54515 17.3747 6.47919C17.7608 7.41324 17.9577 8.41463 17.9539 9.42532C17.9726 13.6626 14.5193 17.1066 10.282 17.1066ZM14.5006 11.3573C14.2673 11.2453 13.1286 10.6853 12.9233 10.6013C12.7086 10.5267 12.5593 10.4893 12.4006 10.7133C12.242 10.9467 11.8033 11.4693 11.6726 11.6186C11.542 11.7773 11.402 11.796 11.1686 11.6746C10.9353 11.5626 10.1886 11.3106 9.31131 10.5267C8.62065 9.91065 8.16331 9.15466 8.02331 8.92132C7.89265 8.68799 8.00465 8.56666 8.12598 8.44532C8.22865 8.34266 8.35931 8.17466 8.47131 8.04399C8.58331 7.91333 8.62998 7.81066 8.70465 7.66133C8.77931 7.50266 8.74198 7.37199 8.68598 7.25999C8.62998 7.148 8.16331 6.00933 7.97665 5.54267C7.78998 5.09467 7.59398 5.15067 7.45398 5.14133H7.00598C6.84732 5.14133 6.60465 5.19733 6.38999 5.43067C6.18465 5.664 5.58732 6.224 5.58732 7.36266C5.58732 8.50132 6.41799 9.60265 6.52999 9.75199C6.64199 9.91065 8.16331 12.244 10.478 13.2426C11.0286 13.4853 11.458 13.6253 11.794 13.728C12.3446 13.9053 12.8486 13.8773 13.25 13.8213C13.698 13.756 14.622 13.2613 14.8086 12.72C15.0046 12.1786 15.0046 11.7213 14.9393 11.6186C14.874 11.516 14.734 11.4693 14.5006 11.3573Z" fill="#2F2F2F"/>
</svg>