<svg xmlns="http://www.w3.org/2000/svg" width="28" height="28" viewBox="0 0 28 28" fill="none">
  <path d="M15.9802 13.3007L12.8133 11.823C12.537 11.6947 12.31 11.8385 12.31 12.1445V14.9278C12.31 15.2338 12.537 15.3776 12.8133 15.2493L15.9788 13.7716C16.2566 13.6419 16.2566 13.4304 15.9802 13.3007ZM13.72 0C6.24408 0 0.183838 6.06025 0.183838 13.5361C0.183838 21.012 6.24408 27.0723 13.72 27.0723C21.1959 27.0723 27.2561 21.012 27.2561 13.5361C27.2561 6.06025 21.1959 0 13.72 0ZM13.72 19.0352C6.79117 19.0352 6.66991 18.4106 6.66991 13.5361C6.66991 8.66172 6.79117 8.03709 13.72 8.03709C20.6488 8.03709 20.7701 8.66172 20.7701 13.5361C20.7701 18.4106 20.6488 19.0352 13.72 19.0352Z" fill="white"/>
</svg>